<svg xmlns="http://www.w3.org/2000/svg" fill="currentColor" xmlns:xlink="http://www.w3.org/1999/xlink" version="1.1" x="0px" y="0px" viewBox="0 0 27 37.5" style="enable-background:new 0 0 27 30;" xml:space="preserve"><g><path color="#fff" d="M1.5,6h3C5.328,6,6,5.328,6,4.5S5.328,3,4.5,3h-3C0.672,3,0,3.672,0,4.5S0.672,6,1.5,6z"/><path  color="#fff" d="M1.5,13h3C5.328,13,6,12.328,6,11.5S5.328,10,4.5,10h-3C0.672,10,0,10.672,0,11.5S0.672,13,1.5,13z"/><path  color="#fff" d="M1.5,20h3C5.328,20,6,19.328,6,18.5S5.328,17,4.5,17h-3C0.672,17,0,17.672,0,18.5S0.672,20,1.5,20z"/><path  color="#fff" d="M6,25.5C6,24.672,5.328,24,4.5,24h-3C0.672,24,0,24.672,0,25.5S0.672,27,1.5,27h3C5.328,27,6,26.328,6,25.5z"/><path  color="#fff" d="M5,0C3.896,0,3,0.896,3,2h1.5C5.878,2,7,3.121,7,4.5S5.878,7,4.5,7H3v2h1.5C5.878,9,7,10.121,7,11.5S5.878,14,4.5,14H3v2   h1.5C5.878,16,7,17.121,7,18.5S5.878,21,4.5,21H3v2h1.5C5.878,23,7,24.121,7,25.5S5.878,28,4.5,28H3c0,1.104,0.896,2,2,2h22V0H5z    M14.651,13.125c-0.199,0.156-0.161,0.438-0.155,0.609l0.384,11.471C14.896,25.69,14.511,26,14.023,26h-0.887   c-0.487,0-0.872-0.31-0.856-0.795l0.385-11.4c0.005-0.171,0.044-0.488-0.156-0.645c-1.498-1.061-1.551-2.356-1.496-2.939   l0.596-6.836c0.019-0.215,0.198-0.379,0.413-0.379c0.111,0,0.219,0.045,0.297,0.125c0.077,0.08,0.12,0.188,0.117,0.301   l-0.143,5.619c-0.002,0.081,0.029,0.16,0.087,0.217c0.057,0.058,0.136,0.09,0.217,0.088c0.156-0.004,0.282-0.128,0.289-0.283   l0.245-5.665C13.141,3.182,13.327,3,13.553,3h0.055c0.227,0,0.413,0.182,0.423,0.407l0.243,5.665   c0.007,0.156,0.134,0.281,0.29,0.284c0.082,0.001,0.161-0.03,0.218-0.088c0.058-0.058,0.089-0.136,0.087-0.218l-0.142-5.619   c-0.003-0.111,0.04-0.221,0.117-0.301c0.078-0.08,0.186-0.125,0.298-0.125c0.215,0,0.395,0.165,0.413,0.379l0.595,6.818   C16.203,10.786,16.15,12.064,14.651,13.125z M22,25.5c0,0.276-0.224,0.5-0.5,0.5h-1c-0.276,0-0.5-0.224-0.5-0.5v-4.564   c0-1.053,0.338-1.295,0.552-1.955c0.136-0.416,0.112-0.868,0.112-0.868c0.081-1.481-1.051-2.074-1.051-2.074   c-0.657-0.357-1.223-0.716-1.065-1.849l0.971-6.142c0.593-3.454,1.44-4.626,2.059-4.999c0.105-0.063,0.206-0.064,0.313-0.004   S22,3.221,22,3.344V25.5z"/></g></svg>